<svg xmlns="http://www.w3.org/2000/svg" xmlns:xlink="http://www.w3.org/1999/xlink" viewBox="0 0 121.65 408.52"><defs><style>.cls-1{fill:#5a6e7f;}.cls-2{fill:#888;stroke:#7b8b99;}.cls-11,.cls-12,.cls-2,.cls-4,.cls-6,.cls-7,.cls-8,.cls-9{stroke-miterlimit:10;}.cls-3{clip-path:url(#clip-path);}.cls-4,.cls-6,.cls-9{fill:none;}.cls-4{stroke:#dd0031;stroke-width:1.25px;}.cls-5{fill:#dd0031;}.cls-6{stroke:#000;}.cls-7{font-size:23px;font-family:MyriadPro-Regular, Myriad Pro;}.cls-10,.cls-11,.cls-12,.cls-7,.cls-8{fill:#fff;}.cls-11,.cls-12,.cls-7,.cls-8,.cls-9{stroke:#fff;}.cls-8{font-size:20px;font-family:Roboto-Light, Roboto;}.cls-11,.cls-9{stroke-width:0.75px;}</style><clipPath id="clip-path"><rect class="cls-1" x="32.3" y="361.78" width="89" height="19.53"/></clipPath></defs><title>Asset 6</title><g id="Layer_2" data-name="Layer 2"><g id="Layer_1-2" data-name="Layer 1"><polygon class="cls-2" points="98.46 362.34 55.13 362.34 55.13 24.56 76.8 24.56 96.8 336.46 97.7 350.56 98.42 361.78 98.46 362.34"/><rect class="cls-1" x="32.3" y="361.78" width="89" height="19.53"/><g class="cls-3"><rect x="30.4" y="365.87" width="12.98" height="1" transform="translate(-248.26 133.39) rotate(-45)"/><rect x="32.9" y="371.04" width="27.62" height="1" transform="translate(-249.04 141.85) rotate(-45)"/><rect x="47.9" y="371.04" width="27.62" height="1" transform="translate(-244.65 152.46) rotate(-45)"/><rect x="62.9" y="371.04" width="27.62" height="1" transform="translate(-240.25 163.07) rotate(-45)"/><rect x="77.9" y="371.04" width="27.62" height="1" transform="translate(-235.86 173.67) rotate(-45)"/><rect x="92.9" y="371.04" width="27.62" height="1" transform="translate(-231.47 184.28) rotate(-45)"/><rect x="110.01" y="376.13" width="13.22" height="1" transform="translate(-232.16 192.78) rotate(-45)"/></g><line class="cls-4" x1="44.05" y1="24.56" x2="2.63" y2="24.56"/><polygon class="cls-5" points="41.58 20.93 55.13 24.56 41.58 28.19 41.58 20.93"/><line class="cls-6" x1="76.8" y1="24.56" x2="121.3" y2="24.56"/><line class="cls-6" x1="115.71" y1="33.42" x2="115.71" y2="353.48"/><polygon points="112.8 35.4 115.71 24.56 118.61 35.4 112.8 35.4"/><polygon points="112.8 351.5 115.71 362.34 118.61 351.5 112.8 351.5"/><line class="cls-6" x1="55.13" y1="362.34" x2="55.13" y2="302.24"/><polygon points="58.03 304.22 55.13 293.38 52.22 304.22 58.03 304.22"/><path d="M62.79,292.21l5-6.55c.48-.6.94-1.13,1.45-1.72v0h-6v-1.63h8.48l0,1.26-5,6.46c-.46.62-.92,1.17-1.43,1.75v0h6.51v1.61h-9Z"/><path d="M100.8,169.45h2v13.82h6.62v1.68H100.8Z"/><path d="M22.18,0h8.35V1.68H24.18V6.83H30V8.49H24.18v7h-2Z"/><text class="cls-7" transform="translate(20.13 77.92) rotate(-90)">A</text><text class="cls-8" transform="translate(20.13 101.38) rotate(-90)">...</text><path d="M68.38,389.58l2.44,6.58c.25.74.53,1.61.71,2.28h0c.21-.67.44-1.52.71-2.32l2.21-6.53h2.14l-3,7.93c-1.45,3.82-2.44,5.77-3.82,7a5.49,5.49,0,0,1-2.48,1.31l-.51-1.7a5.34,5.34,0,0,0,1.77-1,6.14,6.14,0,0,0,1.7-2.25,1.45,1.45,0,0,0,.16-.48,1.77,1.77,0,0,0-.14-.53l-4.12-10.26Z"/><path d="M77.72,408.37c0-.44.05-1.1.05-1.68v-7.85h1.17v4.08h0a2.42,2.42,0,0,1,2.21-1.19c1.61,0,2.75,1.34,2.74,3.31,0,2.32-1.46,3.47-2.91,3.47a2.31,2.31,0,0,1-2.17-1.22h0l-.05,1.07Zm1.22-2.6a2.2,2.2,0,0,0,.05.43,1.82,1.82,0,0,0,1.77,1.38c1.23,0,2-1,2-2.5,0-1.3-.67-2.41-1.93-2.41a1.88,1.88,0,0,0-1.8,1.45,2.33,2.33,0,0,0-.07.48Z"/><path d="M60.85,1.7l2.44,6.58c.25.74.53,1.61.71,2.28h0c.21-.67.44-1.52.71-2.32L67,1.7H69.1l-3,7.93c-1.45,3.82-2.44,5.77-3.82,7a5.49,5.49,0,0,1-2.48,1.31l-.51-1.7a5.34,5.34,0,0,0,1.77-1A6.14,6.14,0,0,0,62.73,13a1.45,1.45,0,0,0,.16-.48,1.77,1.77,0,0,0-.14-.53L58.64,1.7Z"/><path d="M70.9,17.46a2.08,2.08,0,0,0,2.23,2.25,4.27,4.27,0,0,0,1.8-.33l.2.84a5.25,5.25,0,0,1-2.16.4,3,3,0,0,1-3.19-3.27c0-2,1.15-3.5,3-3.5,2.12,0,2.68,1.87,2.68,3.06a4.51,4.51,0,0,1,0,.55Zm3.46-.84a1.68,1.68,0,0,0-1.64-1.92,2,2,0,0,0-1.81,1.92Z"/><line class="cls-9" x1="46.3" y1="58.55" x2="0.38" y2="58.55"/><polygon class="cls-10" points="44.51 55.93 54.27 58.55 44.51 61.16 44.51 55.93"/><line class="cls-10" x1="54.27" y1="58.55" x2="0.38" y2="58.55"/><rect class="cls-11" x="0.38" y="58.55" width="24.23" height="24.23"/><rect class="cls-11" x="0.38" y="82.77" width="24.23" height="24.23"/><rect class="cls-11" x="0.38" y="107" width="24.23" height="24.23"/><line class="cls-12" x1="21.79" y1="109.32" x2="21.79" y2="128.9"/><line class="cls-12" x1="21.79" y1="119.11" x2="2.54" y2="119.11"/><line class="cls-11" x1="36.04" y1="346.59" x2="36.04" y2="359.62"/><polygon class="cls-10" points="32.73 361.53 36.04 355.79 39.35 361.53 32.73 361.53"/><path class="cls-10" d="M36,356.29l2.88,5H33.16l2.88-5m0-1-3.74,6.49h7.49L36,355.29Z"/><text class="cls-7" transform="translate(28.78 342.12)">A</text><rect class="cls-11" x="23.93" y="322.37" width="24.23" height="24.23" transform="translate(370.52 298.44) rotate(90)"/></g></g></svg>