<svg xmlns="http://www.w3.org/2000/svg" xmlns:xlink="http://www.w3.org/1999/xlink" viewBox="0 0 119.02 408.52"><defs><style>.cls-1{fill:#5a6e7f;}.cls-2{fill:#888;stroke:#7b8b99;}.cls-2,.cls-4,.cls-6{stroke-miterlimit:10;}.cls-3{clip-path:url(#clip-path);}.cls-4,.cls-6{fill:none;}.cls-4{stroke:#dd0031;stroke-width:1.25px;}.cls-5{fill:#dd0031;}.cls-6{stroke:#000;}</style><clipPath id="clip-path"><rect class="cls-1" x="29.67" y="361.78" width="89" height="19.53"/></clipPath></defs><title>Asset 3</title><g id="Layer_2" data-name="Layer 2"><g id="Layer_1-2" data-name="Layer 1"><polygon class="cls-2" points="95.83 362.34 52.5 362.34 52.5 24.56 74.17 24.56 94.17 336.46 95.07 350.56 95.79 361.78 95.83 362.34"/><rect class="cls-1" x="29.67" y="361.78" width="89" height="19.53"/><g class="cls-3"><rect x="27.77" y="365.87" width="12.98" height="1" transform="translate(-249.03 131.53) rotate(-45)"/><rect x="30.28" y="371.04" width="27.62" height="1" transform="translate(-249.81 140) rotate(-45)"/><rect x="45.28" y="371.04" width="27.62" height="1" transform="translate(-245.42 150.6) rotate(-45)"/><rect x="60.28" y="371.04" width="27.62" height="1" transform="translate(-241.02 161.21) rotate(-45)"/><rect x="75.28" y="371.04" width="27.62" height="1" transform="translate(-236.63 171.82) rotate(-45)"/><rect x="90.28" y="371.04" width="27.62" height="1" transform="translate(-232.24 182.42) rotate(-45)"/><rect x="107.38" y="376.13" width="13.22" height="1" transform="translate(-232.93 190.92) rotate(-45)"/></g><line class="cls-4" x1="41.43" y1="24.56" y2="24.56"/><polygon class="cls-5" points="38.95 20.93 52.5 24.56 38.95 28.19 38.95 20.93"/><line class="cls-6" x1="74.17" y1="24.56" x2="118.67" y2="24.56"/><line class="cls-6" x1="113.08" y1="33.42" x2="113.08" y2="353.48"/><polygon points="110.17 35.4 113.08 24.56 115.98 35.4 110.17 35.4"/><polygon points="110.17 351.5 113.08 362.34 115.98 351.5 110.17 351.5"/><line class="cls-6" x1="52.5" y1="362.34" x2="52.5" y2="302.24"/><polygon points="55.41 304.22 52.5 293.38 49.59 304.22 55.41 304.22"/><path d="M60.16,292.21l5-6.55c.48-.6.94-1.13,1.45-1.72v0h-6v-1.63H69.1l0,1.26-5,6.46c-.46.62-.92,1.17-1.43,1.75v0H69.2v1.61h-9Z"/><path d="M98.17,169.45h2v13.82h6.62v1.68H98.17Z"/><path d="M19.55,0H27.9V1.68H21.55V6.83h5.86V8.49H21.55v7h-2Z"/><path d="M65.75,389.58l2.44,6.58c.25.74.53,1.61.71,2.28h0c.21-.67.44-1.52.71-2.32l2.21-6.53H74l-3,7.93c-1.45,3.82-2.44,5.77-3.82,7a5.49,5.49,0,0,1-2.48,1.31l-.51-1.7a5.34,5.34,0,0,0,1.77-1,6.14,6.14,0,0,0,1.7-2.25,1.45,1.45,0,0,0,.16-.48,1.77,1.77,0,0,0-.14-.53l-4.12-10.26Z"/><path d="M75.09,408.37c0-.44.05-1.1.05-1.68v-7.85h1.17v4.08h0a2.42,2.42,0,0,1,2.21-1.19c1.61,0,2.75,1.34,2.74,3.31,0,2.32-1.46,3.47-2.91,3.47a2.31,2.31,0,0,1-2.17-1.22h0l-.05,1.07Zm1.22-2.6a2.2,2.2,0,0,0,.05.43,1.82,1.82,0,0,0,1.77,1.38c1.23,0,2-1,2-2.5,0-1.3-.67-2.41-1.93-2.41a1.88,1.88,0,0,0-1.8,1.45,2.33,2.33,0,0,0-.07.48Z"/><path d="M58.22,1.7l2.44,6.58c.25.74.53,1.61.71,2.28h0c.21-.67.44-1.52.71-2.32L64.34,1.7h2.14l-3,7.93c-1.45,3.82-2.44,5.77-3.82,7a5.49,5.49,0,0,1-2.48,1.31l-.51-1.7a5.34,5.34,0,0,0,1.77-1A6.14,6.14,0,0,0,60.1,13a1.45,1.45,0,0,0,.16-.48,1.77,1.77,0,0,0-.14-.53L56,1.7Z"/><path d="M68.27,17.46a2.08,2.08,0,0,0,2.23,2.25,4.27,4.27,0,0,0,1.8-.33l.2.84a5.25,5.25,0,0,1-2.16.4,3,3,0,0,1-3.19-3.27c0-2,1.15-3.5,3-3.5,2.12,0,2.68,1.87,2.68,3.06a4.51,4.51,0,0,1,0,.55Zm3.46-.84A1.68,1.68,0,0,0,70.1,14.7a2,2,0,0,0-1.81,1.92Z"/></g></g></svg>